<svg preserveAspectRatio="xMidYMid meet" xmlns="http://www.w3.org/2000/svg" viewBox="0 0 49 49" height="49" width="49" role="img"><title>Google Ads</title>
    <g>
        <path fill="#ffffff" d="M49 8v33a8 8 0 0 1-8 8H8a8 8 0 0 1-8-8V8a8 8 0 0 1 8-8h33a8 8 0 0 1 8 8"></path>
        <g clip-path="url(#0c1a997c-b27f-4111-b284-f7edfcc6a61e_comp-mlannf0p)">
            <path fill="#3C8BD9" d="M19.57 14.528c.299-.777.71-1.493 1.32-2.072 2.44-2.356 6.473-1.764 8.13 1.196 1.244 2.245 2.564 4.44 3.846 6.66 2.142 3.689 4.308 7.377 6.424 11.077 1.78 3.096-.149 7.007-3.685 7.537-2.166.32-4.195-.666-5.316-2.59-1.88-3.244-3.772-6.488-5.652-9.72a1 1 0 0 0-.137-.197c-.2-.16-.286-.395-.41-.605-.835-1.455-1.694-2.899-2.528-4.342-.535-.937-1.096-1.862-1.631-2.8a5.07 5.07 0 0 1-.685-2.713c.038-.494.1-.987.324-1.431"></path>
            <path fill="#FABC04" d="M19.57 14.528c-.112.444-.212.888-.237 1.356-.037 1.037.225 1.999.747 2.9a1302 1302 0 0 1 4.096 7.018c.125.21.224.42.349.616a614 614 0 0 1-2.253 3.837c-1.046 1.788-2.092 3.589-3.15 5.378-.05 0-.062-.025-.075-.062-.012-.099.025-.185.05-.284.51-1.85.087-3.49-1.195-4.897-.785-.85-1.78-1.332-2.926-1.492-1.494-.21-2.814.172-3.997 1.098-.211.16-.348.394-.597.518-.05 0-.075-.025-.087-.062.597-1.024 1.182-2.048 1.78-3.071 2.465-4.244 4.93-8.487 7.408-12.718.025-.049.062-.086.087-.135"></path>
            <path fill="#34A852" d="M10.345 30.489c.236-.21.46-.432.71-.63 3.024-2.367 7.569-.653 8.229 3.097.161.9.074 1.764-.2 2.627a1.3 1.3 0 0 1-.05.21c-.111.197-.211.407-.336.604-1.108 1.814-2.739 2.714-4.88 2.578-2.453-.172-4.382-1.998-4.718-4.416a4.9 4.9 0 0 1 .684-3.28c.125-.223.274-.42.411-.642.062-.05.037-.148.15-.148"></path>
            <path fill="#FABC04" d="M10.345 30.489c-.05.05-.05.136-.137.148-.013-.086.037-.136.087-.197z"></path>
            <path fill="#E1C025" d="M19.035 35.793c-.05-.086 0-.148.05-.21l.05.05z"></path>
        </g>
        <defs fill="none">
            <clipPath id="0c1a997c-b27f-4111-b284-f7edfcc6a61e_comp-mlannf0p">
                <path fill="#ffffff" d="M40 11v28H9V11z"></path>
            </clipPath>
        </defs>
    </g>
</svg>
